<?xml version="1.0"?>
<svg xmlns="http://www.w3.org/2000/svg" viewBox="0 0 512 512" width="512" height="512"><g id="solid"><path d="M272,336a15.917,15.917,0,0,0-.559-4.126l-19.567,19.567A15.941,15.941,0,0,0,272,336Z" fill="white"/><path d="M288,168a8.009,8.009,0,0,0-8,8,23.87,23.87,0,0,1,14.381,4.8A7.98,7.98,0,0,0,288,168Z" fill="white"/><path d="M240,336a15.917,15.917,0,0,0,.559,4.126l19.567-19.567A15.941,15.941,0,0,0,240,336Z" fill="white"/><circle cx="224" cy="264" r="8" fill="white"/><path d="M287.922,333.882A16,16,0,0,0,296,320V288H216v32a16,16,0,0,0,8.078,13.882,31.992,31.992,0,0,1,63.844,0Z" fill="white"/><circle cx="288" cy="264" r="8" fill="white"/><circle cx="312" cy="200" r="8" fill="white"/><path d="M336.907,211.684a95.481,95.481,0,0,0,6.364-11.647,7.983,7.983,0,0,0-6.364,11.647Z" fill="white"/><path d="M328,448V296a8.009,8.009,0,0,0-8-8h-8v32a32.043,32.043,0,0,1-28.168,31.763,31.972,31.972,0,0,1-55.664,0A32.043,32.043,0,0,1,200,320V288h-8a8.009,8.009,0,0,0-8,8V448h32V424a40,40,0,0,1,80,0v24Z" fill="white"/><path d="M280,153.376A23.992,23.992,0,0,1,312,176a24,24,0,0,1,20.223,11.1A23.844,23.844,0,0,1,344,184a24.228,24.228,0,0,1,4.841.5A96.124,96.124,0,0,0,307.684,79.1,7.955,7.955,0,0,1,304,80H280Z" fill="white"/><circle cx="184" cy="208" r="8" fill="white"/><circle cx="304" cy="232" r="8" fill="white"/><path d="M232,424v24h48V424a24,24,0,0,0-48,0Z" fill="white"/><circle cx="256" cy="264" r="8" fill="white"/><path d="M296,56a24.028,24.028,0,0,0-24-24H238.085a24.028,24.028,0,0,0-24,24v8H296Z" fill="white"/><circle cx="208" cy="232" r="8" fill="white"/><circle cx="216" cy="200" r="8" fill="white"/><path d="M344,464H168a8.009,8.009,0,0,0-8,8v8H352v-8A8.009,8.009,0,0,0,344,464Z" fill="white"/><path d="M184,184a23.844,23.844,0,0,1,11.777,3.1,24.19,24.19,0,0,1,4.88-5.539A23.991,23.991,0,0,1,232,153.376V80H206.085a7.988,7.988,0,0,1-2.525-.413,96.184,96.184,0,0,0-37.916,112.975A23.955,23.955,0,0,1,184,184Zm27.55-90.524,8.9,13.3a64.331,64.331,0,0,0-21.8,24.789l-14.328-7.122A80.36,80.36,0,0,1,211.55,93.476Zm-33.568,48.753,15.6,3.542A64.321,64.321,0,0,0,192,160H176A80.44,80.44,0,0,1,177.982,142.229Z" fill="white"/><circle cx="280" cy="200" r="8" fill="white"/><path d="M224,168a8.009,8.009,0,0,0-8,8,23.87,23.87,0,0,1,14.381,4.8A7.98,7.98,0,0,0,224,168Z" fill="white"/><circle cx="240" cy="232" r="8" fill="white"/><circle cx="272" cy="232" r="8" fill="white"/><path d="M262.381,180.8A7.98,7.98,0,0,0,264,176a7.875,7.875,0,0,0-1.064-3.994,8.007,8.007,0,0,0-13.869,0A7.88,7.88,0,0,0,248,176,23.87,23.87,0,0,1,262.381,180.8Z" fill="white"/><path d="M248,153.387a23.757,23.757,0,0,1,16,0V80H248Z" fill="white"/><circle cx="248" cy="200" r="8" fill="white"/></g></svg>
